<svg xmlns="http://www.w3.org/2000/svg" xml:space="preserve" id="Calque_1" x="0" y="0" version="1.1" viewBox="0 0 307 149"><style>.st0{fill-rule:evenodd;clip-rule:evenodd;fill:#2e2d2c}</style><path d="M45.8 102.1H12.9c-.8 0-2 .5-2.6 1.2l-6.6 6.6c-.6.6-1.2 1.8-1.2 2.5v24c0 .7.5 1.9 1.2 2.5l6.6 6.6c.6.6 1.8 1.2 2.6 1.2h32.9c.9 0 1.6-.7 1.6-1.6v-8.3c0-.9-.7-1.6-1.6-1.6H14.4v-21.4h31.5c.9 0 1.6-.7 1.6-1.6v-8.3c0-1.1-.8-1.8-1.7-1.8M91.8 103.2c-.6-.6-1.9-1.2-2.8-1.2H62.6c-.9 0-2.1.5-2.8 1.2l-6.6 6.6c-.6.6-1.2 1.9-1.2 2.8v23.5c0 .9.5 2.1 1.2 2.8l6.6 6.6c.6.6 1.9 1.1 2.8 1.1H89c.9 0 2.1-.5 2.8-1.1l6.6-6.6c.6-.6 1.2-1.9 1.2-2.8v-23.5c0-.9-.5-2.1-1.2-2.8zM87.7 135H63.9v-21.4h23.7V135zM148.8 102.1h-8.6c-.9 0-1.6.7-1.6 1.6V135h-21.2v-31.4c0-.9-.7-1.6-1.6-1.6h-8.6c-.9 0-1.6.7-1.6 1.6V136c0 .9.5 2.1 1.2 2.8l6.6 6.6c.6.6 1.9 1.1 2.8 1.1H140c.9 0 2.1-.5 2.8-1.1l6.6-6.6c.6-.6 1.1-1.9 1.1-2.8v-32.4c-.1-.8-.8-1.5-1.7-1.5M190.2 132c.6-.2 1.1-.5 1.5-.9l6.6-6.6c.6-.6 1.2-1.9 1.2-2.8v-9.1c0-.9-.5-2.1-1.2-2.8l-6.6-6.6c-.6-.6-1.9-1.2-2.8-1.2h-31.1c-.9 0-1.6.7-1.6 1.6V145c0 .9.7 1.6 1.6 1.6h8.6c.9 0 1.6-.7 1.6-1.6v-12.8h8.7l9 13.1c.5.7 1.7 1.3 2.6 1.3h10.4c.9 0 1.2-.6.7-1.3zm-22.1-18.3h19.5v7.4h-19.5zM289.2 145.3 280 132c.6-.2 1.1-.5 1.5-.9l6.6-6.6c.6-.6 1.1-1.9 1.1-2.8v-9.1c0-.9-.5-2.1-1.1-2.8l-6.6-6.6c-.6-.6-1.9-1.2-2.8-1.2h-31.1c-.9 0-1.6.7-1.6 1.6V145c0 .9.7 1.6 1.6 1.6h8.6c.9 0 1.6-.7 1.6-1.6v-12.8h8.7l9 13.1c.5.7 1.7 1.3 2.6 1.3h10.4c.9 0 1.3-.6.7-1.3m-31.3-31.6h19.5v7.4h-19.5zM239.1 102.1h-33.3c-.9 0-1.6.7-1.6 1.6v8.4c0 .9.7 1.6 1.6 1.6h10.7V135h-10.7c-.9 0-1.6.7-1.6 1.6v8.4c0 .9.7 1.6 1.6 1.6h33.3c.9 0 1.6-.7 1.6-1.6v-8.4c0-.9-.7-1.6-1.6-1.6h-10.7v-21.4h10.7c.9 0 1.6-.7 1.6-1.6v-8.4c.1-.8-.7-1.5-1.6-1.5" class="st0"/><path d="M2.5 62.8c0 2.2 1 4 2 4.9l17.8 17c1.4 1.3 3.2 2.1 5.2 2.1h56.6c2.2 0 3.5-1.8 3.5-3.5v-19c0-1.9-1.6-3.5-3.5-3.5h-55V29.6h55.1c1.9 0 3.5-1.5 3.5-3.5V7.2c0-1.7-1.3-3.5-3.5-3.5H27.6c-2.1 0-3.9.8-5.2 2.1l-17.8 17c-1 1-2 2.7-2 4.9v35.1z" style="fill-rule:evenodd;clip-rule:evenodd;fill:#ea580c"/><path d="m301.2 86.9 3.3 3.3v8.7l-3.3 3.3h-8.7l-3.3-3.3v-8.7l3.3-3.3zm-.8 13.2 2.1-2.1v-7l-2.1-2.1h-7l-2.1 2.1v7l2.1 2.1z" class="st0"/><path d="m300.4 97.6-1.4-2c.1 0 .2-.1.2-.1l1-1c.1-.1.2-.3.2-.4v-1.4c0-.1-.1-.3-.2-.4l-1-1c-.1-.1-.3-.2-.4-.2h-4.7c-.1 0-.2.1-.2.2v6.2c0 .1.1.2.2.2h1.3c.1 0 .2-.1.2-.2v-1.9h1.3l1.4 2c.1.1.2.2.4.2h1.6c.1 0 .1-.1.1-.2m-4.8-4.7h2.9V94h-2.9z" class="st0"/></svg>